# xmcd
#
# Track frame offsets:
#	150
#	19203
#	38374
#	53465
#	86446
#	101228
#	134245
#	165548
#	189308
#	212494
#	242624
#
# Disc length: 3685 seconds
#
# Revision: 1
# Processed by: cddbd v1.5.2PL0 Copyright (c) Steve Scherf et al.
# Submitted via: audiograbber 1.83.01
#
DISCID=870e630b
DTITLE=Yellow Moon - Moving On - Live
DYEAR=2006
DGENRE=Blues
TTITLE0=That Was Your Mother
TTITLE1=The Sensitive Kind
TTITLE2=The Pilgrim
TTITLE3=Feels Like Rain
TTITLE4=Man Of Constant Sorrow
TTITLE5=Billy
TTITLE6=Willy And The Hand Jive
TTITLE7=Blue Mood
TTITLE8=Love The one You're With
TTITLE9=Ballad Of A Crystal  Man
TTITLE10=Crossroads
EXTD=
EXTT0=
EXTT1=
EXTT2=
EXTT3=
EXTT4=
EXTT5=
EXTT6=
EXTT7=
EXTT8=
EXTT9=
EXTT10=
PLAYORDER=
